<svg width="42" height="42" viewBox="0 0 42 42" fill="none" xmlns="http://www.w3.org/2000/svg">
<g clip-path="url(#clip0_70_2)">
<path d="M16.088 1.3543C13.0099 2.17416 10.1044 3.87142 6.89691 6.71937C3.51678 9.72553 1.14348 13.2783 0.266083 16.6584L-0.0935059 18.0536L0.151015 23.5194C0.280466 26.5255 0.438686 29.1146 0.510604 29.2728C0.582521 29.431 0.668823 30.3372 0.711974 31.2865C0.812658 33.7892 1.37362 35.2564 2.72567 36.6084C4.13526 38.018 6.00513 38.6365 8.42156 38.507C12.0606 38.2913 15.8579 36.6084 19.8565 33.444C21.338 32.279 23.9414 29.6468 25.2216 28.0358L25.7286 27.2928L25.6207 31.6079V37.3254L28.9181 34.0913C30.4859 32.5235 30.8743 32.061 30.9606 32.1473C31.0325 32.2336 32.007 34.463 33.1721 37.1096C34.3371 39.7562 34.7615 40.9105 34.7902 40.9392C34.8478 41.0112 38.6558 39.255 38.6558 39.255C38.8572 39.1399 38.6127 38.5214 36.8866 34.7529C35.7935 32.3509 34.8873 30.3228 34.8873 30.2509C34.8873 30.1646 36.2969 30.0351 38.0229 29.9344C39.7346 29.8481 41.3312 29.7331 41.5469 29.6899L41.964 29.6036L41.4894 29.1146C41.0866 28.6975 41.0579 28.6255 41.3024 28.6255C42.1079 28.6112 41.9209 28.3523 38.814 25.3892C37.088 23.7351 34.5853 21.3187 33.262 20.0242L30.8312 17.6653L31.1332 16.1694C31.8524 12.6023 31.3202 9.46663 29.6517 7.53923C29.3784 7.20841 27.6811 5.75567 25.8976 4.30293C22.0428 1.16731 21.9853 1.13855 19.2812 1.06663C17.6558 1.00909 17.2387 1.05224 16.088 1.3543Z" fill="white"/>
<g clip-path="url(#clip1_70_2)">
<ellipse cx="16.5217" cy="21.6654" rx="18.5193" ry="10.2305" transform="rotate(-49.0772 16.5217 21.6654)" fill="black"/>
<ellipse cx="17.2077" cy="21.6627" rx="11.2458" ry="6.63392" transform="rotate(-49.0772 17.2077 21.6627)" fill="#D9D9D9" fill-opacity="0.62"/>
<path d="M22.8521 2.88509L29.5475 8.35003C29.5475 8.35003 23.0692 1.98031 12.4651 11.173C1.86101 20.3656 2.04197 29.884 2.04197 29.884L1.49909 18.9541C1.49909 18.9541 1.10098 12.9463 9.35265 6.32329C17.6043 -0.299758 22.8521 2.88509 22.8521 2.88509Z" fill="#2D3234"/>
<path d="M16.5909 14.8281L18.9434 13.6699V19.7863L24.7702 14.8281V16.9634L20.2101 20.872L25.0236 20.2568L23.033 23.8397L18.7986 22.9711L17.2424 28.7618L12.6823 29.8475L16.3376 22.6816L9.38882 25.975L10.9451 20.9806L16.5909 20.2568V14.8281Z" fill="#D7E0E6"/>
<rect x="17.0917" y="2.75342" width="0.908213" height="0.801664" transform="rotate(62.7495 17.0917 2.75342)" fill="black"/>
<rect x="21.6828" y="2.52295" width="0.908213" height="0.801664" transform="rotate(62.7495 21.6828 2.52295)" fill="black"/>
<rect x="14.9926" y="5.41846" width="0.908213" height="0.801664" transform="rotate(62.7495 14.9926 5.41846)" fill="black"/>
<rect x="11.2287" y="5.99707" width="0.908213" height="0.801664" transform="rotate(62.7495 11.2287 5.99707)" fill="black"/>
<rect x="8.871" y="8.2417" width="0.908213" height="0.801664" transform="rotate(62.7495 8.871 8.2417)" fill="black"/>
<rect x="7.06146" y="10.9922" width="0.908213" height="0.801664" transform="rotate(62.7495 7.06146 10.9922)" fill="black"/>
<rect x="4.74515" y="13.6699" width="0.908213" height="0.801664" transform="rotate(62.7495 4.74515 13.6699)" fill="black"/>
<rect x="18.2084" y="4.25977" width="0.908213" height="0.801664" transform="rotate(62.7495 18.2084 4.25977)" fill="black"/>
<rect x="18.7875" y="5.56299" width="0.908213" height="0.801664" transform="rotate(62.7495 18.7875 5.56299)" fill="black"/>
<rect x="21.6828" y="3.89844" width="0.908213" height="0.801664" transform="rotate(62.7495 21.6828 3.89844)" fill="black"/>
<rect x="23.42" y="3.53613" width="0.908213" height="0.801664" transform="rotate(62.7495 23.42 3.53613)" fill="black"/>
<rect x="16.1093" y="6.9248" width="0.908213" height="0.801664" transform="rotate(62.7495 16.1093 6.9248)" fill="black"/>
<rect x="12.3454" y="7.50342" width="0.908213" height="0.801664" transform="rotate(62.7495 12.3454 7.50342)" fill="black"/>
<rect x="13.5035" y="9.03711" width="0.908213" height="0.801664" transform="rotate(62.7495 13.5035 9.03711)" fill="black"/>
<rect x="5.25183" y="17.6514" width="0.908213" height="0.801664" transform="rotate(62.7495 5.25183 17.6514)" fill="black"/>
<rect x="10.174" y="10.0508" width="0.908213" height="0.801664" transform="rotate(62.7495 10.174 10.0508)" fill="black"/>
<rect x="8.14719" y="12.8604" width="0.908213" height="0.801664" transform="rotate(62.7495 8.14719 12.8604)" fill="black"/>
<rect x="5.97568" y="15.8408" width="0.908213" height="0.801664" transform="rotate(62.7495 5.97568 15.8408)" fill="black"/>
<rect x="16.5436" y="4.04297" width="0.908213" height="0.801664" transform="rotate(62.7495 16.5436 4.04297)" fill="black"/>
<rect x="20.1628" y="3.53613" width="0.908213" height="0.801664" transform="rotate(62.7495 20.1628 3.53613)" fill="black"/>
<rect x="19.6561" y="2.16064" width="0.908213" height="0.801664" transform="rotate(62.7495 19.6561 2.16064)" fill="black"/>
<rect x="14.4445" y="6.70801" width="0.908213" height="0.801664" transform="rotate(62.7495 14.4445 6.70801)" fill="black"/>
<rect x="13.3588" y="4.6084" width="0.908213" height="0.801664" transform="rotate(62.7495 13.3588 4.6084)" fill="black"/>
<rect x="10.6806" y="7.28711" width="0.908213" height="0.801664" transform="rotate(62.7495 10.6806 7.28711)" fill="black"/>
<rect x="11.8387" y="8.82031" width="0.908213" height="0.801664" transform="rotate(62.7495 11.8387 8.82031)" fill="black"/>
<rect x="9.81198" y="11.7153" width="0.908213" height="0.801664" transform="rotate(62.7495 9.81198 11.7153)" fill="black"/>
<rect x="3.80417" y="18.0854" width="0.908213" height="0.801664" transform="rotate(62.7495 3.80417 18.0854)" fill="black"/>
<rect x="2.42892" y="18.3154" width="0.908213" height="0.801664" transform="rotate(62.7495 2.42892 18.3154)" fill="black"/>
<rect x="7.56808" y="14.4663" width="0.908213" height="0.801664" transform="rotate(62.7495 7.56808 14.4663)" fill="black"/>
<rect x="5.68613" y="10.7749" width="0.908213" height="0.801664" transform="rotate(62.7495 5.68613 10.7749)" fill="black"/>
<rect x="8.50912" y="9.54443" width="0.908213" height="0.801664" transform="rotate(62.7495 8.50912 9.54443)" fill="black"/>
<rect x="6.48236" y="12.6436" width="0.908213" height="0.801664" transform="rotate(62.7495 6.48236 12.6436)" fill="black"/>
<rect x="3.87659" y="14.6836" width="0.908213" height="0.801664" transform="rotate(62.7495 3.87659 14.6836)" fill="black"/>
<rect x="16.5436" y="5.41846" width="0.908213" height="0.801664" transform="rotate(62.7495 16.5436 5.41846)" fill="black"/>
<rect x="17.6293" y="6.35938" width="0.908213" height="0.801664" transform="rotate(62.7495 17.6293 6.35938)" fill="black"/>
<rect x="20.2352" y="5.05615" width="0.908213" height="0.801664" transform="rotate(62.7495 20.2352 5.05615)" fill="black"/>
<rect x="22.7686" y="4.83887" width="0.908213" height="0.801664" transform="rotate(62.7495 22.7686 4.83887)" fill="black"/>
<rect x="25.0124" y="4.98389" width="0.908213" height="0.801664" transform="rotate(62.7495 25.0124 4.98389)" fill="black"/>
<rect x="14.4445" y="8.08301" width="0.908213" height="0.801664" transform="rotate(62.7495 14.4445 8.08301)" fill="black"/>
<rect x="10.6806" y="8.66162" width="0.908213" height="0.801664" transform="rotate(62.7495 10.6806 8.66162)" fill="black"/>
<rect x="11.8387" y="10.1953" width="0.908213" height="0.801664" transform="rotate(62.7495 11.8387 10.1953)" fill="black"/>
<rect x="3.80417" y="19.4604" width="0.908213" height="0.801664" transform="rotate(62.7495 3.80417 19.4604)" fill="black"/>
<rect x="2.50128" y="23.7314" width="0.908213" height="0.801664" transform="rotate(62.7495 2.50128 23.7314)" fill="black"/>
<rect x="2.35651" y="20.04" width="0.908213" height="0.801664" transform="rotate(62.7495 2.35651 20.04)" fill="black"/>
<rect x="3.08038" y="21.2705" width="0.908213" height="0.801664" transform="rotate(62.7495 3.08038 21.2705)" fill="black"/>
<rect x="8.58151" y="11.3408" width="0.908213" height="0.801664" transform="rotate(62.7495 8.58151 11.3408)" fill="black"/>
<rect x="6.12051" y="14.2485" width="0.908213" height="0.801664" transform="rotate(62.7495 6.12051 14.2485)" fill="black"/>
<rect x="4.38327" y="16.335" width="0.908213" height="0.801664" transform="rotate(62.7495 4.38327 16.335)" fill="black"/>
<rect x="3.00797" y="16.5645" width="0.908213" height="0.801664" transform="rotate(62.7495 3.00797 16.5645)" fill="black"/>
<rect x="15.0959" y="3.68066" width="0.908213" height="0.801664" transform="rotate(62.7495 15.0959 3.68066)" fill="black"/>
<rect x="18.6428" y="2.95752" width="0.908213" height="0.801664" transform="rotate(62.7495 18.6428 2.95752)" fill="black"/>
<rect x="12.9968" y="6.3457" width="0.908213" height="0.801664" transform="rotate(62.7495 12.9968 6.3457)" fill="black"/>
<rect x="11.9111" y="4.69482" width="0.908213" height="0.801664" transform="rotate(62.7495 11.9111 4.69482)" fill="black"/>
<rect x="9.23294" y="6.9248" width="0.908213" height="0.801664" transform="rotate(62.7495 9.23294 6.9248)" fill="black"/>
<rect x="6.98904" y="9.25439" width="0.908213" height="0.801664" transform="rotate(62.7495 6.98904 9.25439)" fill="black"/>
<rect x="5.03476" y="12.2817" width="0.908213" height="0.801664" transform="rotate(62.7495 5.03476 12.2817)" fill="black"/>
<circle cx="16.0119" cy="21.5229" r="0.542873" fill="black" fill-opacity="0.79"/>
<circle cx="19.5586" cy="20.2203" r="0.325724" fill="black" fill-opacity="0.79"/>
<circle cx="19.4501" cy="22.0666" r="0.434298" fill="black" fill-opacity="0.79"/>
<circle cx="17.5319" cy="23.4057" r="0.542873" fill="black" fill-opacity="0.79"/>
<circle cx="17.6767" cy="19.714" r="0.398107" fill="black" fill-opacity="0.79"/>
<path d="M26.1872 14.9094L40.8385 28.9235L33.5128 29.4013L37.8127 38.7972L35.1054 40.0712L30.9648 30.6753L26.1872 35.4529L26.1872 14.9094Z" fill="#515151"/>
<path d="M26.1872 13.8142L40.8384 27.8283L33.5128 28.3061L37.8126 37.702L35.1053 38.976L30.9648 29.5801L26.1872 34.3577L26.1872 13.8142Z" fill="black"/>
<path d="M27.0508 15.9494L39.154 27.097L32.2824 27.4757L36.8427 37.4474L35.4912 38.0854L30.9448 28.023L27.0508 32.0339L27.0508 15.9494Z" fill="white"/>
</g>
</g>
<defs>
<clipPath id="clip0_70_2">
<rect width="42" height="42" fill="white"/>
</clipPath>
<clipPath id="clip1_70_2">
<rect width="39.1592" height="39.1592" fill="white" transform="translate(1.51035 0.971191)"/>
</clipPath>
</defs>
</svg>
